HIERARCHY
ROOT reference
{
  OFFSET -65.3212 -1.93545 -120.338
  CHANNELS 6 Xposition Yposition Zposition Zrotation Xrotation Yrotation
  JOINT Hips
  {
    OFFSET 0 78.7191 0
    CHANNELS 6 Xposition Yposition Zposition Zrotation Xrotation Yrotation
    JOINT Chest
    {
      OFFSET 0 8.7983 -4.7612
      CHANNELS 6 Xposition Yposition Zposition Zrotation Xrotation Yrotation
      JOINT Chest2
      {
        OFFSET 0 8.0291 0.4195
        CHANNELS 6 Xposition Yposition Zposition Zrotation Xrotation Yrotation
        JOINT Chest3
        {
          OFFSET 0 9.9351 -2.2114
          CHANNELS 6 Xposition Yposition Zposition Zrotation Xrotation Yrotation
          JOINT Neck
          {
            OFFSET 0 22.3885 -0.4656
            CHANNELS 6 Xposition Yposition Zposition Zrotation Xrotation Yrotation
            JOINT Head
            {
              OFFSET -0.0001 12.643 3.4389
              CHANNELS 6 Xposition Yposition Zposition Zrotation Xrotation Yrotation
              End Site
              {
                OFFSET 0.0001 17.6655 0.5274
              }
            }
          }
          JOINT LeftCollar
          {
            OFFSET 2.2603 21.606 7.4023
            CHANNELS 6 Xposition Yposition Zposition Zrotation Xrotation Yrotation
            JOINT LeftShoulder
            {
              OFFSET 13.5163 -1.1332 -5.0146
              CHANNELS 6 Xposition Yposition Zposition Zrotation Xrotation Yrotation
              JOINT LeftElbow
              {
                OFFSET -0.0995 -28.05 -0.2431
                CHANNELS 6 Xposition Yposition Zposition Zrotation Xrotation Yrotation
                JOINT LeftWrist
                {
                  OFFSET 0.0679 -23.3996 -0.1402
                  CHANNELS 6 Xposition Yposition Zposition Zrotation Xrotation Yrotation
                  JOINT LeftFinger1
                  {
                    OFFSET 0.7932 -9.069 2.5189
                    CHANNELS 6 Xposition Yposition Zposition Zrotation Xrotation Yrotation
                    JOINT LeftFinger11
                    {
                      OFFSET -0.8272 -3.3923 0.5977
                      CHANNELS 6 Xposition Yposition Zposition Zrotation Xrotation Yrotation
                      JOINT LeftFinger12
                      {
                        OFFSET -0.5649 -2.3158 0.4082
                        CHANNELS 6 Xposition Yposition Zposition Zrotation Xrotation Yrotation
                        End Site
                        {
                          OFFSET -0.4919 -1.6479 0.2673
                        }
                      }
                    }
                  }
                  JOINT LeftFinger2
                  {
                    OFFSET 0.9159 -9.2044 0.2193
                    CHANNELS 6 Xposition Yposition Zposition Zrotation Xrotation Yrotation
                    JOINT LeftFinger21
                    {
                      OFFSET 0.0117 -4.1944 -0.0248
                      CHANNELS 6 Xposition Yposition Zposition Zrotation Xrotation Yrotation
                      JOINT LeftFinger22
                      {
                        OFFSET 0.0071 -2.3249 -0.0142
                        CHANNELS 6 Xposition Yposition Zposition Zrotation Xrotation Yrotation
                        End Site
                        {
                          OFFSET -0.1475 -2.0882 0.0028
                        }
                      }
                    }
                  }
                  JOINT LeftFinger3
                  {
                    OFFSET 0.6113 -8.7231 -2.0637
                    CHANNELS 6 Xposition Yposition Zposition Zrotation Xrotation Yrotation
                    JOINT LeftFinger31
                    {
                      OFFSET -0.1927 -3.8059 -0.2383
                      CHANNELS 6 Xposition Yposition Zposition Zrotation Xrotation Yrotation
                      JOINT LeftFinger32
                      {
                        OFFSET -0.1091 -2.1688 -0.1362
                        CHANNELS 6 Xposition Yposition Zposition Zrotation Xrotation Yrotation
                        End Site
                        {
                          OFFSET -0.2358 -1.9176 -0.0906
                        }
                      }
                    }
                  }
                  JOINT LeftFinger4
                  {
                    OFFSET -0.6151 -8.0947 -3.5641
                    CHANNELS 6 Xposition Yposition Zposition Zrotation Xrotation Yrotation
                    JOINT LeftFinger41
                    {
                      OFFSET -0.4882 -2.341 -0.6462
                      CHANNELS 6 Xposition Yposition Zposition Zrotation Xrotation Yrotation
                      JOINT LeftFinger42
                      {
                        OFFSET -0.3575 -1.7167 -0.4742
                        CHANNELS 6 Xposition Yposition Zposition Zrotation Xrotation Yrotation
                        End Site
                        {
                          OFFSET -0.4187 -1.5237 -0.3496
                        }
                      }
                    }
                  }
                  JOINT LeftFinger0
                  {
                    OFFSET -1.42 -1.8761 1.4223
                    CHANNELS 6 Xposition Yposition Zposition Zrotation Xrotation Yrotation
                    JOINT LeftFinger01
                    {
                      OFFSET -1.1471 -3.4929 2.6334
                      CHANNELS 6 Xposition Yposition Zposition Zrotation Xrotation Yrotation
                      JOINT LeftFinger02
                      {
                        OFFSET -0.823 -2.3 1.6571
                        CHANNELS 6 Xposition Yposition Zposition Zrotation Xrotation Yrotation
                        End Site
                        {
                          OFFSET -0.5822 -1.6914 1.1582
                        }
                      }
                    }
                  }
                }
              }
            }
          }
          JOINT RightCollar
          {
            OFFSET -2.2603 21.606 7.4023
            CHANNELS 6 Xposition Yposition Zposition Zrotation Xrotation Yrotation
            JOINT RightShoulder
            {
              OFFSET -13.5187 -1.1334 -5.0155
              CHANNELS 6 Xposition Yposition Zposition Zrotation Xrotation Yrotation
              JOINT RightElbow
              {
                OFFSET 0.0994 -28.0499 -0.2431
                CHANNELS 6 Xposition Yposition Zposition Zrotation Xrotation Yrotation
                JOINT RightWrist
                {
                  OFFSET -0.0679 -23.3996 -0.1402
                  CHANNELS 6 Xposition Yposition Zposition Zrotation Xrotation Yrotation
                  JOINT RightFinger1
                  {
                    OFFSET -0.7932 -9.0691 2.5189
                    CHANNELS 6 Xposition Yposition Zposition Zrotation Xrotation Yrotation
                    JOINT RightFinger11
                    {
                      OFFSET 0.8272 -3.3923 0.5977
                      CHANNELS 6 Xposition Yposition Zposition Zrotation Xrotation Yrotation
                      JOINT RightFinger12
                      {
                        OFFSET 0.565 -2.3158 0.4082
                        CHANNELS 6 Xposition Yposition Zposition Zrotation Xrotation Yrotation
                        End Site
                        {
                          OFFSET 0.4919 -1.6479 0.2673
                        }
                      }
                    }
                  }
                  JOINT RightFinger2
                  {
                    OFFSET -0.916 -9.2044 0.2193
                    CHANNELS 6 Xposition Yposition Zposition Zrotation Xrotation Yrotation
                    JOINT RightFinger21
                    {
                      OFFSET -0.0117 -4.1944 -0.0248
                      CHANNELS 6 Xposition Yposition Zposition Zrotation Xrotation Yrotation
                      JOINT RightFinger22
                      {
                        OFFSET -0.0071 -2.3249 -0.0142
                        CHANNELS 6 Xposition Yposition Zposition Zrotation Xrotation Yrotation
                        End Site
                        {
                          OFFSET 0.1475 -2.0882 0.0028
                        }
                      }
                    }
                  }
                  JOINT RightFinger3
                  {
                    OFFSET -0.6113 -8.7231 -2.0637
                    CHANNELS 6 Xposition Yposition Zposition Zrotation Xrotation Yrotation
                    JOINT RightFinger31
                    {
                      OFFSET 0.1927 -3.8059 -0.2383
                      CHANNELS 6 Xposition Yposition Zposition Zrotation Xrotation Yrotation
                      JOINT RightFinger32
                      {
                        OFFSET 0.1091 -2.1688 -0.1362
                        CHANNELS 6 Xposition Yposition Zposition Zrotation Xrotation Yrotation
                        End Site
                        {
                          OFFSET 0.2358 -1.9176 -0.0906
                        }
                      }
                    }
                  }
                  JOINT RightFinger4
                  {
                    OFFSET 0.6151 -8.0947 -3.564
                    CHANNELS 6 Xposition Yposition Zposition Zrotation Xrotation Yrotation
                    JOINT RightFinger41
                    {
                      OFFSET 0.4882 -2.341 -0.6462
                      CHANNELS 6 Xposition Yposition Zposition Zrotation Xrotation Yrotation
                      JOINT RightFinger42
                      {
                        OFFSET 0.3574 -1.7166 -0.4742
                        CHANNELS 6 Xposition Yposition Zposition Zrotation Xrotation Yrotation
                        End Site
                        {
                          OFFSET 0.4187 -1.5237 -0.3496
                        }
                      }
                    }
                  }
                  JOINT RightFinger0
                  {
                    OFFSET 1.4199 -1.8761 1.4221
                    CHANNELS 6 Xposition Yposition Zposition Zrotation Xrotation Yrotation
                    JOINT RightFinger01
                    {
                      OFFSET 1.1472 -3.4929 2.6336
                      CHANNELS 6 Xposition Yposition Zposition Zrotation Xrotation Yrotation
                      JOINT RightFinger02
                      {
                        OFFSET 0.8229 -2.3 1.6571
                        CHANNELS 6 Xposition Yposition Zposition Zrotation Xrotation Yrotation
                        End Site
                        {
                          OFFSET 0.5822 -1.6914 1.1582
                        }
                      }
                    }
                  }
                }
              }
            }
          }
        }
      }
    }
    JOINT RightHip
    {
      OFFSET -9.412 3.9771 -0.7758
      CHANNELS 6 Xposition Yposition Zposition Zrotation Xrotation Yrotation
      JOINT RightKnee
      {
        OFFSET -0.7531 -40.938 0
        CHANNELS 6 Xposition Yposition Zposition Zrotation Xrotation Yrotation
        JOINT RightAnkle
        {
          OFFSET 0 -40.1986 0
          CHANNELS 6 Xposition Yposition Zposition Zrotation Xrotation Yrotation
          JOINT RightToe
          {
            OFFSET 0 -4.4182 9.239
            CHANNELS 6 Xposition Yposition Zposition Zrotation Xrotation Yrotation
            End Site
            {
              OFFSET 0 0 6.1981
            }
          }
        }
      }
    }
    JOINT LeftHip
    {
      OFFSET 9.4119 3.9773 -0.7758
      CHANNELS 6 Xposition Yposition Zposition Zrotation Xrotation Yrotation
      JOINT LeftKnee
      {
        OFFSET 0.7532 -40.9383 0
        CHANNELS 6 Xposition Yposition Zposition Zrotation Xrotation Yrotation
        JOINT LeftAnkle
        {
          OFFSET 0 -40.1986 0
          CHANNELS 6 Xposition Yposition Zposition Zrotation Xrotation Yrotation
          JOINT LeftToe
          {
            OFFSET 0 -4.4182 9.239
            CHANNELS 6 Xposition Yposition Zposition Zrotation Xrotation Yrotation
            End Site
            {
              OFFSET 0 0 6.1981
            }
          }
        }
      }
    }
  }
}
MOTION
Frames:	4
Frame Time:	0.0333333
4.61517 -2.94688 15.845 0 0 -0 4.44089e-015 78.7191 0 -3.15582e-005 22.9876 1.13392e-006 8.88179e-016 8.7983 -4.7612 0.461343 -0.00367266 0.088763 8.88179e-016 8.0291 0.4195 0.92268 -0.00662229 0.177551 0 9.9351 -2.2114 0.92269 -0.00662953 0.177553 0 22.3885 -0.4656 5.36203 -6.61096 1.10641 -0.0001 12.643 3.4389 5.35127 -6.66536 0.482585 2.2603 21.606 7.4023 2.749 3.42237 -0.175861 13.5163 -1.1332 -5.0146 11.654 16.6472 10.1283 -0.0995 -28.05 -0.2431 -72.2996 5.38259 -51.6402 0.0679 -23.3996 -0.1402 -2.72461 -9.53968 -22.9034 0.7932 -9.069 2.5189 -12.2213 16.3769 -2.83229 -0.8272 -3.3923 0.5977 -9.08007 5.65885 -0.038747 -0.5649 -2.3158 0.4082 -11.2228 6.98221 0.0831172 0.9159 -9.2044 0.2193 -9.235 7.40792 -3.35637 0.0117 -4.1944 -0.0248 -12.8858 8.13555 -0.355746 0.0071 -2.3249 -0.0142 -8.98222 5.67274 -0.44214 0.6113 -8.7231 -2.0637 -8.12178 5.10732 -0.194167 -0.1927 -3.8059 -0.2383 -12.2211 8.5253 -0.716642 -0.1091 -2.1688 -0.1362 -8.43181 5.87301 -0.689541 -0.6151 -8.0947 -3.5641 -9.10325 4.15897 0.112864 -0.4882 -2.341 -0.6462 -10.2366 7.06715 -1.07913 -0.3575 -1.7167 -0.4742 -8.63267 5.94803 -0.993329 -1.42 -1.8761 1.4223 4.37655 9.5434 -2.53525 -1.1471 -3.4929 2.6334 -1.00099 -0.669941 0.209672 -0.823 -2.3 1.6571 3.07527 4.00958 -0.947305 -2.2603 21.606 7.4023 -3.56498 2.82789 -5.22021 -13.5187 -1.1334 -5.0155 -17.8468 27.4343 -16.9591 0.0994 -28.0499 -0.2431 72.6847 9.70017 56.4545 -0.0679 -23.3996 -0.1402 -14.9141 -1.59273 40.0701 -0.7932 -9.0691 2.5189 4.70885 8.26434 4.6193 0.8272 -3.3923 0.5977 -0.0288108 -0.245953 0.281821 0.565 -2.3158 0.4082 1.1238 0.384253 -0.0218765 -0.916 -9.2044 0.2193 -5.19886 -1.67262 2.91524 -0.0117 -4.1944 -0.0248 0.0705838 -0.323957 -0.0574057 -0.0071 -2.3249 -0.0142 -6.44772 -2.17773 -0.276406 -0.6113 -8.7231 -2.0637 -11.1628 -4.38956 -1.65134 0.1927 -3.8059 -0.2383 0.200392 -1.23592 -0.619286 0.1091 -2.1688 -0.1362 -10.5525 -3.97209 -0.962276 0.6151 -8.0947 -3.564 -10.6145 -4.96595 -2.97517 0.4882 -2.341 -0.6462 -0.273909 -1.27522 -2.46718 0.3574 -1.7166 -0.4742 -10.3549 -3.74352 -1.21776 1.4199 -1.8761 1.4221 -9.4634 10.6393 2.32289 1.1472 -3.4929 2.6336 -0.280341 0.642911 0.203222 0.8229 -2.3 1.6571 -3.26434 7.09922 2.45124 -9.412 3.9771 -0.7758 -0.865938 -27.6595 31.4656 -0.7531 -40.938 0 3.72748 24.9761 1.29507 0 -40.1986 2.66454e-015 2.32486 -21.6344 4.71001 0 -4.4182 9.239 0.000150607 -1.92522e-005 -1.21501e-005 9.4119 3.9773 -0.7758 -7.37665 -31.3141 -27.0847 0.7532 -40.9383 3.55271e-015 -0.665422 29.8218 -1.62337 0 -40.1986 0 3.76364 -19.3564 -0.859225 0 -4.4182 9.239 2.00246e-005 -1.79285e-005 1.2097e-005 
4.57009 -2.79814 16.1229 0 0 -0 4.44089e-015 78.7191 0 -0.637076 20.862 0.168427 4.44089e-016 8.7983 -4.7612 0.599487 0.262367 0.152988 8.88179e-016 8.0291 0.4195 1.19829 0.526323 0.303228 8.88178e-016 9.9351 -2.2114 1.19829 0.526322 0.303228 1.77636e-015 22.3885 -0.4656 4.71605 -5.37991 0.244525 -0.0001 12.643 3.4389 4.63522 -5.58249 -0.433826 2.2603 21.606 7.4023 2.74844 3.42206 -0.176018 13.5163 -1.1332 -5.0146 11.5418 14.6517 8.96595 -0.0995 -28.05 -0.2431 -72.3057 5.49542 -51.681 0.0679 -23.3996 -0.1402 -2.05026 -9.34173 -20.0715 0.7932 -9.069 2.5189 -12.2213 16.3769 -2.83227 -0.8272 -3.3923 0.5977 -9.08004 5.65885 -0.0387335 -0.5649 -2.3158 0.4082 -11.2228 6.98221 0.0831044 0.9159 -9.2044 0.2193 -9.23501 7.40792 -3.35637 0.0117 -4.1944 -0.0248 -12.8858 8.13556 -0.355737 0.0071 -2.3249 -0.0142 -8.98221 5.67274 -0.442148 0.6113 -8.7231 -2.0637 -8.12181 5.10731 -0.194159 -0.1927 -3.8059 -0.2383 -12.2211 8.52529 -0.716641 -0.1091 -2.1688 -0.1362 -8.43182 5.87302 -0.689535 -0.6151 -8.0947 -3.5641 -9.10348 4.15886 0.11321 -0.4882 -2.341 -0.6462 -10.2366 7.06715 -1.0791 -0.3575 -1.7167 -0.4742 -8.63236 5.94802 -0.993867 -1.42 -1.8761 1.4223 4.37655 9.54339 -2.53526 -1.1471 -3.4929 2.6334 -1.00101 -0.669998 0.209683 -0.823 -2.3 1.6571 3.07527 4.00959 -0.947302 -2.2603 21.606 7.4023 -3.60136 2.8496 -5.20184 -13.5187 -1.1334 -5.0155 -18.3429 25.7144 -16.074 0.0994 -28.0499 -0.2431 73.453 9.74115 57.561 -0.0679 -23.3996 -0.1402 -15.5375 -0.395697 37.2202 -0.793201 -9.0691 2.5189 4.70885 8.26435 4.6193 0.827201 -3.3923 0.5977 -0.0288686 -0.245965 0.28181 0.565 -2.3158 0.4082 1.12378 0.384252 -0.0218773 -0.916001 -9.2044 0.2193 -5.19888 -1.67261 2.91522 -0.0117 -4.1944 -0.0248 0.0706337 -0.323928 -0.0574095 -0.00710001 -2.3249 -0.0142 -6.44771 -2.17774 -0.276402 -0.6113 -8.7231 -2.0637 -11.1628 -4.38953 -1.65136 0.1927 -3.8059 -0.2383 0.200444 -1.23592 -0.619258 0.1091 -2.1688 -0.1362 -10.5525 -3.97209 -0.962285 0.6151 -8.0947 -3.564 -10.6145 -4.96594 -2.97518 0.4882 -2.341 -0.6462 -0.273893 -1.27523 -2.46718 0.3574 -1.7166 -0.4742 -10.3549 -3.7435 -1.21777 1.4199 -1.8761 1.4221 -9.46342 10.6393 2.32286 1.1472 -3.4929 2.6336 -0.280346 0.642898 0.203258 0.822901 -2.3 1.6571 -3.26433 7.09922 2.45124 -9.412 3.9771 -0.7758 -0.703771 -24.562 31.1536 -0.7531 -40.938 1.77636e-015 3.45769 22.9997 1.73798 0 -40.1986 3.55271e-015 2.29129 -20.6943 4.72561 -1.77636e-015 -4.4182 9.239 -0.00651329 -0.0344853 0.000845837 9.4119 3.9773 -0.7758 -6.42671 -28.8999 -26.5617 0.7532 -40.9383 0 -0.65693 29.2565 -1.66276 0 -40.1986 8.88178e-016 3.7824 -19.136 -0.89376 -3.55271e-015 -4.4182 9.239 2.41092e-005 -3.45082e-005 6.04854e-006 
4.54065 -2.64748 16.5723 0 0 -0 4.44089e-015 78.7191 0 -1.46787 18.0801 0.104635 8.88179e-016 8.7983 -4.7612 0.792745 0.615316 0.202359 8.88179e-016 8.0291 0.4195 1.58344 1.23337 0.396215 -8.88179e-016 9.9351 -2.2114 1.58345 1.23337 0.396217 -1.77636e-015 22.3885 -0.4656 3.80875 -3.82253 -1.33545 -0.0001 12.643 3.4389 3.58504 -4.36629 -2.09354 2.2603 21.606 7.4023 2.74883 3.42215 -0.175937 13.5163 -1.1332 -5.0146 11.1078 12.5116 7.94034 -0.0995 -28.05 -0.2431 -72.1389 5.78131 -51.7534 0.0679 -23.3996 -0.1402 -1.21286 -9.27244 -16.7611 0.7932 -9.069 2.5189 -12.2213 16.3769 -2.83227 -0.8272 -3.3923 0.5977 -9.08004 5.65883 -0.0387366 -0.5649 -2.3158 0.4082 -11.2228 6.98221 0.0831056 0.9159 -9.2044 0.2193 -9.23502 7.40791 -3.35636 0.0117 -4.1944 -0.0248 -12.8858 8.13557 -0.355751 0.0071 -2.3249 -0.0142 -8.9822 5.67275 -0.44213 0.6113 -8.7231 -2.0637 -8.1218 5.10731 -0.194176 -0.1927 -3.8059 -0.2383 -12.2211 8.5253 -0.716636 -0.1091 -2.1688 -0.1362 -8.43181 5.87303 -0.689532 -0.6151 -8.0947 -3.5641 -9.10369 4.15875 0.113547 -0.4882 -2.341 -0.6462 -10.2366 7.06715 -1.07909 -0.3575 -1.7167 -0.4742 -8.63205 5.94798 -0.994404 -1.42 -1.8761 1.4223 4.37653 9.54339 -2.53524 -1.1471 -3.4929 2.6334 -1.001 -0.669993 0.209665 -0.823 -2.3 1.6571 3.07525 4.00958 -0.9473 -2.2603 21.606 7.4023 -3.61867 2.86072 -5.19365 -13.5187 -1.1334 -5.0155 -19.301 23.6259 -15.1543 0.0994 -28.0499 -0.2431 74.5206 9.80496 60.5612 -0.0679 -23.3996 -0.1402 -16.0934 1.1999 33.7749 -0.7932 -9.0691 2.5189 4.70885 8.26435 4.61932 0.8272 -3.3923 0.5977 -0.0288317 -0.245942 0.28182 0.565 -2.3158 0.4082 1.12378 0.384238 -0.021883 -0.916 -9.2044 0.2193 -5.19887 -1.67262 2.91523 -0.0117 -4.1944 -0.0248 0.0706413 -0.323949 -0.0574149 -0.0071 -2.3249 -0.0142 -6.44772 -2.17773 -0.276403 -0.6113 -8.7231 -2.0637 -11.1628 -4.38954 -1.65135 0.1927 -3.8059 -0.2383 0.200424 -1.23595 -0.619259 0.1091 -2.1688 -0.1362 -10.5525 -3.97209 -0.9623 0.6151 -8.0947 -3.564 -10.6145 -4.96597 -2.97516 0.4882 -2.341 -0.6462 -0.273901 -1.27522 -2.46717 0.3574 -1.7166 -0.4742 -10.3549 -3.74352 -1.21778 1.4199 -1.8761 1.4221 -9.46341 10.6393 2.32288 1.1472 -3.4929 2.6336 -0.28034 0.642909 0.203252 0.8229 -2.3 1.6571 -3.26434 7.0992 2.45124 -9.412 3.9771 -0.7758 -0.448027 -20.5454 30.8088 -0.7531 -40.938 1.77636e-015 3.22084 20.483 2.49292 -1.77636e-015 -40.1986 0 1.99953 -19.5058 4.9188 -1.77636e-015 -4.4182 9.239 -0.0240996 -0.125414 0.00306728 9.4119 3.9773 -0.7758 -5.29115 -25.7701 -26.0079 0.7532 -40.9383 3.55271e-015 -0.613809 28.8515 -1.55463 3.55271e-015 -40.1986 -2.66454e-015 3.83472 -19.0937 -0.809794 3.55271e-015 -4.4182 9.239 1.12961e-005 -2.71133e-005 1.05849e-005 
4.52718 -2.48893 17.144 0 0 -0 4.44089e-015 78.7191 0 -2.41445 14.9299 -0.185692 0 8.7983 -4.7612 1.01564 1.01288 0.23584 4.44089e-016 8.0291 0.4195 2.02757 2.02977 0.453787 -8.88178e-016 9.9351 -2.2114 2.02757 2.02976 0.453787 0 22.3885 -0.4656 2.74937 -2.04159 -3.41177 -0.0001 12.643 3.4389 2.34147 -3.04788 -4.28369 2.2603 21.606 7.4023 2.74911 3.42235 -0.175897 13.5163 -1.1332 -5.0146 10.4493 10.3575 6.99563 -0.0995 -28.05 -0.2431 -71.8642 6.18736 -51.8532 0.0679 -23.3996 -0.1402 -0.233397 -9.30935 -13.1603 0.7932 -9.069 2.5189 -12.2213 16.3768 -2.83224 -0.8272 -3.3923 0.5977 -9.08006 5.65883 -0.0387242 -0.5649 -2.3158 0.4082 -11.2228 6.98222 0.08313 0.9159 -9.2044 0.2193 -9.235 7.40791 -3.35637 0.0117 -4.1944 -0.0248 -12.8858 8.13557 -0.355706 0.0071 -2.3249 -0.0142 -8.98221 5.67274 -0.442122 0.6113 -8.7231 -2.0637 -8.12178 5.1073 -0.194148 -0.1927 -3.8059 -0.2383 -12.2211 8.52529 -0.716627 -0.1091 -2.1688 -0.1362 -8.4318 5.87304 -0.689513 -0.6151 -8.0947 -3.5641 -9.10384 4.15863 0.113911 -0.4882 -2.341 -0.6462 -10.2366 7.06716 -1.07909 -0.3575 -1.7167 -0.4742 -8.63173 5.94796 -0.994935 -1.42 -1.8761 1.4223 4.37652 9.54339 -2.53521 -1.1471 -3.4929 2.6334 -1.00097 -0.669879 0.209676 -0.823 -2.3 1.6571 3.07527 4.00959 -0.947311 -2.2603 21.606 7.4023 -3.62255 2.86365 -5.19274 -13.5187 -1.1334 -5.0155 -20.5676 21.3076 -14.2509 0.0994 -28.0499 -0.2431 75.7327 9.88378 65.5066 -0.0679 -23.3996 -0.1402 -16.4967 3.02553 29.8988 -0.7932 -9.0691 2.5189 4.70884 8.26433 4.61933 0.8272 -3.3923 0.5977 -0.0288095 -0.245945 0.28183 0.565 -2.3158 0.4082 1.12379 0.384239 -0.0218815 -0.916 -9.2044 0.2193 -5.19887 -1.67262 2.91522 -0.0117 -4.1944 -0.0248 0.0706133 -0.323967 -0.0573979 -0.0071 -2.3249 -0.0142 -6.44771 -2.17773 -0.276406 -0.6113 -8.7231 -2.0637 -11.1628 -4.38955 -1.65136 0.1927 -3.8059 -0.2383 0.200388 -1.23592 -0.619252 0.1091 -2.1688 -0.1362 -10.5525 -3.9721 -0.962274 0.6151 -8.0947 -3.564 -10.6145 -4.96598 -2.97515 0.4882 -2.341 -0.6462 -0.273933 -1.27522 -2.46718 0.3574 -1.7166 -0.4742 -10.3549 -3.74354 -1.21776 1.4199 -1.8761 1.4221 -9.46342 10.6393 2.32287 1.1472 -3.4929 2.6336 -0.280361 0.642886 0.203284 0.8229 -2.3 1.6571 -3.26432 7.09922 2.45121 -9.412 3.9771 -0.7758 -0.197918 -15.9088 30.4079 -0.7531 -40.938 0 2.99849 17.4759 3.4546 -1.77636e-015 -40.1986 -2.66454e-015 1.52978 -18.0962 5.23785 -1.77636e-015 -4.4182 9.239 -0.0489632 -0.253982 0.0061489 9.4119 3.9773 -0.7758 -4.11275 -22.1785 -25.5309 0.7532 -40.9383 3.55271e-015 -0.535042 28.5244 -1.30424 0 -40.1986 1.77636e-015 3.90686 -19.1698 -0.613463 0 -4.4182 9.239 1.95678e-005 -3.03512e-005 2.90276e-005 
